<?xml version="1.0" encoding="utf-8"?>
<!-- Generator: Adobe Illustrator 15.0.0, SVG Export Plug-In . SVG Version: 6.00 Build 0)  -->
<!DOCTYPE svg PUBLIC "-//W3C//DTD SVG 1.1//EN" "http://www.w3.org/Graphics/SVG/1.1/DTD/svg11.dtd">
<svg version="1.1" id="Layer_1" xmlns="http://www.w3.org/2000/svg" xmlns:xlink="http://www.w3.org/1999/xlink" x="0px" y="0px"
	 width="22.778px" height="27.014px" viewBox="0 0 22.778 27.014" enable-background="new 0 0 22.778 27.014" xml:space="preserve">
<path fill="#191919" d="M0,21.785v-2.367C5.555,17.627,2.5,7.493,7.816,4.441C8.55,4.02,9.003,3.238,9.001,2.392
	c0-0.001,0-0.003,0-0.004C9.001,1.069,10.07,0,11.389,0s2.388,1.069,2.388,2.388c0,0.001,0,0.002,0,0.004
	c-0.001,0.845,0.452,1.628,1.185,2.049c5.316,3.052,2.261,13.186,7.816,14.977v2.367H0z M11.422,27.014
	c-1.799,0-3.256-1.458-3.256-3.256h6.513C14.679,25.556,13.22,27.014,11.422,27.014z"/>
</svg>
