<?xml version="1.0" encoding="utf-8"?>
<!-- Generator: Adobe Illustrator 15.0.0, SVG Export Plug-In . SVG Version: 6.00 Build 0)  -->
<!DOCTYPE svg PUBLIC "-//W3C//DTD SVG 1.1//EN" "http://www.w3.org/Graphics/SVG/1.1/DTD/svg11.dtd">
<svg version="1.1" id="Layer_1" xmlns="http://www.w3.org/2000/svg" xmlns:xlink="http://www.w3.org/1999/xlink" x="0px" y="0px"
	 width="20px" height="20px" viewBox="0 0 20 20" enable-background="new 0 0 20 20" xml:space="preserve">
<g>
	<defs>
		<rect id="SVGID_1_" width="20" height="20"/>
	</defs>
	<clipPath id="SVGID_2_">
		<use xlink:href="#SVGID_1_"  overflow="visible"/>
	</clipPath>
	
		<rect x="1" y="3" clip-path="url(#SVGID_2_)" fill="none" stroke="#5384FF" stroke-width="2" stroke-linecap="round" stroke-linejoin="round" stroke-miterlimit="10" width="18" height="16"/>
	
		<line clip-path="url(#SVGID_2_)" fill="none" stroke="#5384FF" stroke-width="2" stroke-linecap="round" stroke-linejoin="round" stroke-miterlimit="10" x1="14" y1="1" x2="14" y2="5"/>
	
		<line clip-path="url(#SVGID_2_)" fill="none" stroke="#5384FF" stroke-width="2" stroke-linecap="round" stroke-linejoin="round" stroke-miterlimit="10" x1="6" y1="1" x2="6" y2="5"/>
	<path clip-path="url(#SVGID_2_)" fill="#5384FF" d="M6.531,11H5.469C5.21,11,5,10.79,5,10.531V9.469C5,9.21,5.21,9,5.469,9h1.062
		C6.79,9,7,9.21,7,9.469v1.062C7,10.79,6.79,11,6.531,11"/>
	<path clip-path="url(#SVGID_2_)" fill="#5384FF" d="M10.531,11H9.469C9.21,11,9,10.79,9,10.531V9.469C9,9.21,9.21,9,9.469,9h1.062
		C10.79,9,11,9.21,11,9.469v1.062C11,10.79,10.79,11,10.531,11"/>
	<path clip-path="url(#SVGID_2_)" fill="#5384FF" d="M14.531,11h-1.063C13.21,11,13,10.79,13,10.531V9.469C13,9.21,13.21,9,13.469,9
		h1.063C14.79,9,15,9.21,15,9.469v1.062C15,10.79,14.79,11,14.531,11"/>
	<path clip-path="url(#SVGID_2_)" fill="#5384FF" d="M6.531,15H5.469C5.21,15,5,14.79,5,14.531v-1.063C5,13.21,5.21,13,5.469,13
		h1.062C6.79,13,7,13.21,7,13.469v1.063C7,14.79,6.79,15,6.531,15"/>
	<path clip-path="url(#SVGID_2_)" fill="#5384FF" d="M10.531,15H9.469C9.21,15,9,14.79,9,14.531v-1.063C9,13.21,9.21,13,9.469,13
		h1.062C10.79,13,11,13.21,11,13.469v1.063C11,14.79,10.79,15,10.531,15"/>
	<path clip-path="url(#SVGID_2_)" fill="#5384FF" d="M14.531,15h-1.063C13.21,15,13,14.79,13,14.531v-1.063
		C13,13.21,13.21,13,13.469,13h1.063C14.79,13,15,13.21,15,13.469v1.063C15,14.79,14.79,15,14.531,15"/>
</g>
</svg>
