<?xml version="1.0" encoding="utf-8"?>
<!-- Generator: Adobe Illustrator 15.0.0, SVG Export Plug-In . SVG Version: 6.00 Build 0)  -->
<!DOCTYPE svg PUBLIC "-//W3C//DTD SVG 1.1//EN" "http://www.w3.org/Graphics/SVG/1.1/DTD/svg11.dtd">
<svg version="1.1" id="Layer_1" xmlns="http://www.w3.org/2000/svg" xmlns:xlink="http://www.w3.org/1999/xlink" x="0px" y="0px"
	 width="37.816px" height="27.014px" viewBox="0 0 37.816 27.014" enable-background="new 0 0 37.816 27.014" xml:space="preserve">
<g>
	<path fill="#0E1A35" d="M18.917,18.916l-4.686-4.104L0.857,26.276c0.486,0.462,1.135,0.738,1.861,0.738H35.1
		c0.727,0,1.372-0.276,1.859-0.738L23.584,14.813L18.917,18.916z"/>
	<path fill="#0E1A35" d="M36.959,0.741C36.485,0.277,35.826,0,35.1,0H2.719C2.005,0,1.344,0.277,0.857,0.741l18.061,15.471
		L36.959,0.741z"/>
	<path fill="#0E1A35" d="M0,2.375v22.438l13.059-11.094L0,2.375z"/>
	<path fill="#0E1A35" d="M24.758,13.718l13.059,11.094V2.361L24.758,13.718z"/>
</g>
</svg>
