<?xml version="1.0" encoding="utf-8"?>
<!-- Generator: Adobe Illustrator 15.0.0, SVG Export Plug-In . SVG Version: 6.00 Build 0)  -->
<!DOCTYPE svg PUBLIC "-//W3C//DTD SVG 1.1//EN" "http://www.w3.org/Graphics/SVG/1.1/DTD/svg11.dtd">
<svg version="1.1" id="Layer_1" xmlns="http://www.w3.org/2000/svg" xmlns:xlink="http://www.w3.org/1999/xlink" x="0px" y="0px"
	 width="21px" height="22px" viewBox="0 0 21 22" enable-background="new 0 0 21 22" xml:space="preserve">
<g>
	<defs>
		<rect id="SVGID_1_" width="21" height="22"/>
	</defs>
	<clipPath id="SVGID_2_">
		<use xlink:href="#SVGID_1_"  overflow="visible"/>
	</clipPath>
	
		<path clip-path="url(#SVGID_2_)" fill="none" stroke="#5384FF" stroke-width="2" stroke-linecap="round" stroke-linejoin="round" stroke-miterlimit="10" d="
		M18.259,11c0-0.514-0.051-1.015-0.141-1.502L20,7.654L18.06,4.19l-2.492,0.76c-0.733-0.653-1.586-1.086-2.52-1.422L12.439,1H8.56
		L7.952,3.528C7.018,3.864,6.166,4.336,5.433,4.989L2.94,4.21L1,7.664l1.882,1.839c-0.089,0.487-0.141,0.985-0.141,1.499
		s0.052,1.014,0.141,1.501L1,14.346l1.94,3.464l2.493-0.76c0.733,0.653,1.585,1.086,2.519,1.422L8.56,21h3.879l0.608-2.528
		c0.934-0.336,1.786-0.808,2.52-1.461l2.492,0.779L20,14.336l-1.882-1.839C18.208,12.01,18.259,11.514,18.259,11z"/>
	
		<circle clip-path="url(#SVGID_2_)" fill="none" stroke="#5384FF" stroke-width="2" stroke-linecap="round" stroke-linejoin="round" stroke-miterlimit="10" cx="10.5" cy="11" r="3"/>
</g>
</svg>
